<?xml version="1.0" encoding="utf-8"?>
<!-- Generator: Adobe Illustrator 16.0.4, SVG Export Plug-In . SVG Version: 6.00 Build 0)  -->
<!DOCTYPE svg PUBLIC "-//W3C//DTD SVG 1.1//EN" "http://www.w3.org/Graphics/SVG/1.1/DTD/svg11.dtd">
<svg version="1.1" id="Layer_1" xmlns="http://www.w3.org/2000/svg" xmlns:xlink="http://www.w3.org/1999/xlink" x="0px" y="0px"
	 width="152px" height="95px" viewBox="0.424 7.5 152 95" enable-background="new 0.424 7.5 152 95" xml:space="preserve">
<g>
	<path fill="#998C7E" d="M58.671,53.914c0.322-0.916,0.541-1.511,0.431-2.209c-0.109-0.691-1.403-0.595-1.244,0.211
		C57.953,52.396,58.404,53.264,58.671,53.914z M100.506,58.572c-0.11-0.321-0.165-0.669-0.487-0.835
		C99.049,58.572,99.37,59.385,100.506,58.572z M56.996,20.548c-0.163,0.035-0.547,0.835-1.006,1.225
		c0.527-0.083,1.43,0.143,1.498,0.294c-0.943,0.349-3.96,2.497-5.389,3.487c-0.636,1.246-3.693,4.61-5.069,5.822
		c-0.02,0.157,0.329,0.376,0.649,0.452c0.965,0.239,1.403,1.052,1.293,1.757l2.477,0.587c0.65-0.806,1.751-1.101,2.62-0.567
		c-0.062-0.034,1.622,1.006,2.968,0.972c2.045-0.055,2.265,0.567,2.476,0.944c0.706-0.329,2.21-0.54,2.695-0.644
		c0.322-1.703,2.565-2.216,3.906-1.751c-0.293-1.081,1.026-1.429,1.724-1.751l-0.184-0.725c0.684-0.301,1.409-0.623,1.62-0.753
		c0.055-0.273-0.129-0.943-0.273-1.162c-0.184,0.355-1.047,1.189-1.532,1.484c-0.212,0.027-0.294-0.083-0.294-0.239
		c0.075-0.13,0.294-0.458,0.239-0.699c-0.239,0.349-1.32,0.999-1.485,1.129c-0.185,0.027-0.293-0.103-0.376-0.321
		c0.322-0.328,0.781-1.054,0.781-1.485c-3.975,3.783-7.095-1.347-4.153-4.289c-0.759-4.097,1.403-7.223,3.558-8.303
		c0.431-1.505,2.264-3.447,3.66-4.418c2.585-2.381,7.551-0.807,5.662,2.749c0.972-0.43,3.292-0.377,4.255-0.054v1.081
		c-1.183,0-2.366,1.081-2.906,1.512c1.183,0.807,1.183,1.669,1.074,2.209c-0.104,0.541-0.157,1.027,0.109,1.348
		c0.274,0.321,0.917,0.049,1.292-0.649c0.219,0,0.807,0.321,0.972,0.485c0.165,0.697-0.321,1.402-0.917,1.614
		c3.058,2.189,0.854,7.812-3.667,6.361l-0.246,0.834c0.841,0.047,2.456,0.349,2.777,0.404c0,0,0.109,0.643,0.432,0.91
		c0.321-0.376,1.395-0.65,1.723-0.753c-0.056,0.432-0.219,1.239-0.43,1.888c5.047-0.732,13.104,2.319,11.97,5.014l2.804-1.45
		c1.56-0.697,2.578,2.264,2.53,5.232c-0.041,2.723,2.71,8.024,2.757,8.112c-0.32,0.056-1.266-0.259-1.771-0.417
		c0.129,0.548,0.382,1.341,0.643,1.594c-0.472-0.006-1.02-0.212-1.67-0.505c0.137,0.136,0.356,0.882,0.412,1.23
		c-0.773-0.212-1.444-0.739-2.04-1.238c0.165,0.322,0.5,1.184,0.527,1.539c-0.375-0.685-3.81-1.957-5.164-2.223
		c-0.492,1.013-1.135,1.306-2.318,1.143c0.642,1.135,1.456,2.873,1.511,4.111c1.238-0.87,2.805-0.567,3.557-0.567
		s1.409-0.315,1.887-0.753c1.436-1.333,1.888-0.027,2.114,0.684l0.929,0.013c0-2.393,3.571-1.914,4.652-0.779
		c0.329-0.383,2.543-0.383,2.543-0.383c0.494,0.11,0.871,0.541,1.138,1.082c0.881,1.751,0.971,3.768,0.752,6.197
		c-0.425-0.055-1.211,0.137-1.752,0.247c1.766,3.878,1.334,8.009-1.805,8.433h-8.147c-0.137-0.027-0.212-0.103-0.212-0.267v-1.67
		c0-0.189,0.554-0.409,0.711-0.43c-3.29-3.754,1.67-6.095,5.103-4.206c0.109-0.733-0.138-1.109-0.294-1.704
		c-1.102,1.183-3.749-0.021-1.943-2.237c-0.13-0.158-0.643-0.082-0.807-0.048c0.219,0.916-0.375,2.264-0.807,2.585
		c-1.026-0.54-4.713-0.294-6.984,0.623c-2.263,0.917-3.713,1.073-4.959-1.027c-0.772-1.306-1.457-2.804-3.502-4.364
		c-2.297-1.751-4.097-3.481-4.473-4.178c-2.059,1.402-6.799,1.531-8.441-0.836c-0.43-0.116-0.861,0.212-1.184,0.377
		c0.542,3.125-0.185,5.719-1.805,7.387c-0.157,1.456-2.394,2.072-3.53,1.374c0,1.293-1.081,2.915-2.832,2.723
		c-0.697,0.808-1.183,1.102-1.941,1.156c-1.882-0.752-3.23-2.777-3.934-4.665c0.054-0.027,0.65-0.793,0.697-1.02
		c-3.549,0-7.032-3.884-7.441-7.495c0.143-1.691,0.711-2.539,1.998-2.97c2.072-4.664,9.322-2.721,8.57,3.797
		c0.719-0.82,1.519-0.91,2.101,0.301c0.054-0.541,0.649-0.944,1.135-0.889c-0.587-1.943,0.294-3.64,1.32-3.852
		c-1.347-4.903,3.099-5.389,6.547-3.29c-0.431-0.916-0.643-2.858-0.431-3.878c-2.237,0.192-4.501,0.67-7.059,1.998
		c-2.743,1.416-2.86,0.786-4.207-0.268c-1.019-0.807-2.264-1.237-3.769-1.457c-2.141-0.3-3.503-0.697-3.94-2.099l-2.1-0.541
		c-1.026,0.808-2.264,1.081-3.016,1.081c-0.329,1.833,0.93,9.234,0.93,9.315c-0.137-0.184-0.821-0.663-1.094-0.71
		c0.164,0.423-0.028,1.976-0.028,2.058c-0.226-0.451-1.237-1.039-1.703-1.196c0.027,0.403-0.211,1.888-0.24,1.97
		c-0.554-1.293-2.777-3.619-5.369-3.619c-3.852-0.513-7.498-2.359-9.111-4.945c0.334-4.48,6.361-11.545,6.792-14.029
		c0.294-1.697,0.808-3.667,1.245-4.364c0.431-0.697,0.616-1.347,0.889-2.045c0.972-0.861,4.098-1.511,6.3-1.135
		c1.088,0.185,4.651,0.363,5.287,0.218c1.882-0.43,5.062-1.156,7.053-1.312c-0.111,0.116-0.514,1.143-0.624,1.628
		c0.309-0.151,1.218-0.294,1.355-0.33c-0.199,0.165-0.329,0.917-0.479,1.389C55.771,20.562,56.92,20.562,56.996,20.548z"/>
	<polygon fill="#998C7E" points="136.905,74.547 138.937,74.547 149.229,89.355 149.278,89.355 149.278,74.547 150.849,74.547 
		150.849,91.454 148.812,91.454 138.527,76.648 138.481,76.648 138.481,91.454 136.905,91.454 	"/>
	<path fill="#998C7E" d="M133.944,90.36c-1.961,1.122-4.109,1.531-6.302,1.531c-5.156,0-8.746-3.732-8.746-8.887
		c0-5.158,3.582-8.879,8.746-8.879c2.508,0,4.535,0.758,6.09,2.337l-1.151,1.196c-1.025-1.236-3.099-2.101-4.938-2.101
		c-4.424,0-7.166,3.245-7.166,7.446c0,4.206,2.742,7.445,7.166,7.445c1.812,0,3.434-0.233,4.728-0.999v-5.683h-4.062v-1.434h5.636
		V90.36z"/>
	<rect x="115.216" y="74.547" fill="#998C7E" width="1.58" height="16.899"/>
	<path fill="#998C7E" d="M104.069,88.328c0.836,1.412,2.19,2.122,3.862,2.122c2.122,0,3.794-1.286,3.794-3.314
		c0-4.727-8.717-1.963-8.717-8.388c0-3.015,2.578-4.63,5.423-4.63c1.839,0,3.463,0.62,4.616,2.122l-1.365,0.977
		c-0.796-1.097-1.84-1.675-3.294-1.675c-2.029,0-3.792,1.05-3.792,3.198c0,5.087,8.711,2.03,8.711,8.388
		c0,3.055-2.508,4.748-5.247,4.748c-2.227,0-4.181-0.717-5.494-2.556L104.069,88.328z"/>
	<polygon fill="#998C7E" points="90.884,74.547 101.224,74.547 101.224,75.979 92.465,75.979 92.465,82.001 100.676,82.001 
		100.676,83.434 92.465,83.434 92.465,90.021 101.611,90.021 101.611,91.454 90.884,91.454 	"/>
	<path fill="#998C7E" d="M74.525,74.547h5.233c8.787,0,9.146,7.214,9.146,8.449c0,1.245-0.366,8.458-9.146,8.458h-5.233V74.547z
		 M76.105,90.021h3.246c4.489,0,7.972-2.178,7.972-7.025c0-4.844-3.483-7.023-7.972-7.023h-3.246V90.021z"/>
	<path fill="#E86D2E" d="M70.635,84.434c0,0.351-0.184,0.719-0.663,0.719H59.458c0,1.442,0.411,2.229,1.259,2.885
		c0.813,0.664,2.011,0.945,3.7,0.945c1.943,0,3.42-0.472,4.399-0.75c0.054-0.035,0.089-0.035,0.15-0.035
		c0.192,0,0.349,0.121,0.438,0.437l0.409,1.6c0,0.035,0.035,0.095,0.035,0.159c0,0.252-0.157,0.374-0.376,0.472
		c-1.074,0.437-3.202,1.004-5.684,1.004c-6.149,0-8.571-2.422-8.571-8.57c0-5.902,1.635-8.728,7.757-8.728
		c3.167,0,5.115,0.821,6.244,2.326c1.067,1.408,1.417,3.419,1.417,6.027V84.434L70.635,84.434z M66.209,79.754
		c-0.417-1.729-1.354-2.289-3.201-2.289c-2.1,0-2.983,0.63-3.325,2.197c-0.219,0.879-0.219,1.783-0.246,2.825l7.031-0.037
		C66.455,81.451,66.427,80.605,66.209,79.754"/>
	<path fill="#E86D2E" d="M53.87,77.087c0,0.062-0.062,0.151-0.219,0.281c-0.657,0.473-1.443,0.691-2.203,0.691
		c-0.533,0-0.596-0.098-1.314-0.219c0.377,0.308,1.287,1.317,1.287,2.982c0,4.013-2.893,5.245-6.847,5.245
		c-1.034,0-1.225,0.035-1.977,0.035c-1.225,0-1.601,0.566-1.601,1.346c0,1.163,0.787,1.385,2.326,1.385h3.455
		c2.886,0,5.677,0.724,5.677,4.172c0,4.021-3.358,5.431-8.037,5.431c-5.309,0-8.003-0.946-8.003-4.05
		c0-2.757,2.162-2.982,3.385-3.262v-0.473c-1.409-0.314-2.825-0.376-2.825-2.792c0-1.978,1.443-2.421,3.297-2.763
		c-1.259-0.382-3.392-1.198-3.392-4.557c0-4.458,2.824-5.963,7.284-5.963c2.012,0,2.791,0.279,4.05,0.628
		c0.348,0.062,0.718,0.097,1.197,0.097c0.473,0,1.041-0.062,1.505-0.191c0.568-0.151,1.162-0.438,1.601-0.657
		c0.129-0.067,0.219-0.096,0.281-0.096c0.123,0,0.218,0.062,0.287,0.287l0.717,2.229C53.842,76.93,53.87,76.993,53.87,77.087
		 M45.743,91.911h-2.702c-1.224,0-2.544,0.279-2.544,1.908c0,1.732,1.54,2.071,4.05,2.071c1.977,0,3.858-0.376,3.858-2.293
		C48.412,92.033,47.152,91.911,45.743,91.911 M44.232,77.026c-2.318,0-3.235,1.033-3.235,3.297c0,2.256,0.911,3.298,3.235,3.298
		c2.325,0,3.263-1.036,3.263-3.298C47.501,78.06,46.557,77.026,44.232,77.026"/>
	<path fill="#E86D2E" d="M30.798,91.439c-1.102,0.252-2.606,0.437-4.365,0.437c-3.393,0-7.565-0.352-7.565-5.341
		c0-4.048,2.545-4.49,5.049-4.897l5.588-0.912v-1.004c0-0.882-0.096-1.513-0.882-1.854c-0.5-0.22-1.252-0.308-2.387-0.308
		c-2.134,0-4.46,0.627-5.397,0.876c-0.096,0-0.157,0.033-0.218,0.033c-0.158,0-0.315-0.062-0.342-0.282l-0.452-1.949v-0.122
		c0-0.282,0.226-0.405,0.383-0.471c0.752-0.286,3.638-1.067,6.846-1.067c2.231,0,3.735,0.314,4.734,0.882
		c1.606,0.876,1.915,2.354,1.915,4.05v8.666C33.719,90.521,32.933,90.933,30.798,91.439 M29.512,83.461l-3.899,0.632
		c-1.286,0.191-2.476,0.384-2.476,2.423c0,2.445,1.976,2.633,3.482,2.633c1.225,0,2.237-0.221,2.893-0.439V83.461z"/>
	<path fill="#E86D2E" d="M16.236,82.213c-1.347,1.373-3.591,1.619-5.807,1.619H10.1l-4.645-0.055v7.291
		c0,0.24-0.184,0.403-0.458,0.403H2.001c-0.246,0-0.43-0.163-0.43-0.403V71.943c0-0.245,0.212-0.438,0.458-0.438h9.29
		c2.133,0,3.865,0.377,4.965,1.54c0.917,0.944,1.402,2.427,1.402,4.536C17.686,79.427,17.344,81.069,16.236,82.213 M12.912,75.049
		c-0.698-0.676-1.833-0.76-3.29-0.76H5.456v7l3.673-0.139c1.731-0.054,3.024-0.136,3.783-0.87c0.54-0.513,0.787-1.317,0.787-2.673
		C13.698,76.314,13.425,75.535,12.912,75.049"/>
</g>
</svg>
