<?xml version="1.0" encoding="utf-8"?>
<!-- Generator: Adobe Illustrator 16.0.4, SVG Export Plug-In . SVG Version: 6.00 Build 0)  -->
<!DOCTYPE svg PUBLIC "-//W3C//DTD SVG 1.1//EN" "http://www.w3.org/Graphics/SVG/1.1/DTD/svg11.dtd">
<svg version="1.1" id="Layer_1" xmlns="http://www.w3.org/2000/svg" xmlns:xlink="http://www.w3.org/1999/xlink" x="0px" y="0px"
	 width="220px" height="44.19px" viewBox="0 0 220 44.19" style="enable-background:new 0 0 220 44.19;" xml:space="preserve">
<style type="text/css">
<![CDATA[
	.st0{fill:#E86D2E;}
	.st1{fill:#998C7E;}
]]>
</style>
<polygon class="st1" points="197.65,7.79 200.54,7.79 215.19,28.87 215.26,28.87 215.26,7.79 217.5,7.79 217.5,31.86 214.6,31.86 
	199.96,10.79 199.89,10.79 199.89,31.86 197.65,31.86 "/>
<path class="st1" d="M193.43,30.3c-2.79,1.6-5.85,2.18-8.97,2.18c-7.34,0-12.45-5.31-12.45-12.65s5.1-12.64,12.45-12.64
	c3.57,0,6.46,1.08,8.67,3.33l-1.64,1.7c-1.46-1.76-4.41-2.99-7.03-2.99c-6.3,0-10.2,4.62-10.2,10.6c0,5.99,3.9,10.6,10.2,10.6
	c2.58,0,4.89-0.33,6.73-1.42v-8.09h-5.78v-2.04h8.02V30.3z"/>
<rect x="166.77" y="7.79" class="st1" width="2.25" height="24.06"/>
<path class="st1" d="M150.9,27.41c1.19,2.01,3.12,3.02,5.5,3.02c3.02,0,5.4-1.83,5.4-4.72c0-6.73-12.41-2.79-12.41-11.94
	c0-4.29,3.67-6.59,7.72-6.59c2.62,0,4.93,0.88,6.57,3.02l-1.94,1.39c-1.13-1.56-2.62-2.38-4.69-2.38c-2.89,0-5.4,1.49-5.4,4.55
	c0,7.24,12.4,2.89,12.4,11.94c0,4.35-3.57,6.76-7.47,6.76c-3.17,0-5.95-1.02-7.82-3.64L150.9,27.41z"/>
<polygon class="st1" points="132.13,7.79 146.85,7.79 146.85,9.83 134.38,9.83 134.38,18.4 146.07,18.4 146.07,20.44 134.38,20.44 
	134.38,29.82 147.4,29.82 147.4,31.86 132.13,31.86 "/>
<path class="st1" d="M108.84,7.79h7.45c12.51,0,13.02,10.27,13.02,12.03c0,1.77-0.52,12.04-13.02,12.04h-7.45V7.79z M111.09,29.82
	h4.62c6.39,0,11.35-3.1,11.35-10c0-6.9-4.96-10-11.35-10h-4.62V29.82z"/>
<path class="st0" d="M103.47,21.58c0,0.51-0.27,1.05-0.97,1.05H87.13c0,2.11,0.6,3.26,1.84,4.22c1.19,0.97,2.94,1.38,5.41,1.38
	c2.84,0,5-0.69,6.43-1.1c0.08-0.05,0.13-0.05,0.22-0.05c0.28,0,0.51,0.18,0.64,0.64l0.6,2.34c0,0.05,0.05,0.14,0.05,0.23
	c0,0.37-0.23,0.55-0.55,0.69c-1.57,0.64-4.68,1.47-8.31,1.47c-8.99,0-12.53-3.54-12.53-12.53c0-8.63,2.39-12.76,11.34-12.76
	c4.63,0,7.48,1.2,9.13,3.4c1.56,2.06,2.07,5,2.07,8.81V21.58z M97,14.75c-0.61-2.53-1.98-3.35-4.68-3.35
	c-3.07,0-4.36,0.92-4.86,3.21c-0.32,1.29-0.32,2.61-0.36,4.13l10.28-0.05C97.36,17.22,97.32,15.98,97,14.75"/>
<path class="st0" d="M78.96,10.85c0,0.09-0.09,0.22-0.32,0.41c-0.96,0.69-2.11,1.01-3.22,1.01c-0.78,0-0.87-0.14-1.92-0.32
	c0.55,0.45,1.88,1.93,1.88,4.36c0,5.87-4.23,7.67-10.01,7.67c-1.51,0-1.79,0.05-2.89,0.05c-1.79,0-2.34,0.83-2.34,1.97
	c0,1.7,1.15,2.02,3.4,2.02h5.05c4.22,0,8.3,1.06,8.3,6.1c0,5.88-4.91,7.94-11.75,7.94c-7.76,0-11.7-1.38-11.7-5.92
	c0-4.03,3.16-4.36,4.95-4.77v-0.69c-2.06-0.46-4.13-0.55-4.13-4.08c0-2.89,2.11-3.54,4.82-4.04c-1.84-0.56-4.96-1.75-4.96-6.66
	c0-6.52,4.13-8.72,10.65-8.72c2.94,0,4.08,0.41,5.92,0.92c0.51,0.09,1.05,0.14,1.75,0.14c0.69,0,1.52-0.09,2.2-0.28
	c0.83-0.22,1.7-0.64,2.34-0.96c0.19-0.1,0.32-0.14,0.41-0.14c0.18,0,0.32,0.09,0.42,0.42l1.05,3.26
	C78.92,10.61,78.96,10.71,78.96,10.85 M67.08,32.51h-3.95c-1.79,0-3.72,0.41-3.72,2.79c0,2.53,2.25,3.03,5.92,3.03
	c2.89,0,5.64-0.55,5.64-3.35C70.98,32.69,69.14,32.51,67.08,32.51 M64.87,10.76c-3.39,0-4.73,1.51-4.73,4.82
	c0,3.3,1.33,4.82,4.73,4.82s4.77-1.51,4.77-4.82C69.65,12.27,68.27,10.76,64.87,10.76"/>
<path class="st0" d="M45.23,31.82c-1.61,0.37-3.81,0.64-6.38,0.64c-4.96,0-11.06-0.51-11.06-7.81c0-5.92,3.72-6.56,7.38-7.16
	l8.17-1.33V14.7c0-1.29-0.14-2.21-1.29-2.71c-0.73-0.32-1.83-0.45-3.49-0.45c-3.12,0-6.52,0.92-7.89,1.28
	c-0.14,0-0.23,0.05-0.32,0.05c-0.23,0-0.46-0.09-0.5-0.41l-0.66-2.85V9.42c0-0.41,0.33-0.59,0.56-0.69
	c1.1-0.42,5.32-1.56,10.01-1.56c3.26,0,5.46,0.46,6.92,1.29c2.35,1.28,2.8,3.44,2.8,5.92v12.67C49.5,30.49,48.35,31.08,45.23,31.82
	 M43.35,20.16l-5.7,0.92c-1.88,0.28-3.62,0.56-3.62,3.54c0,3.58,2.89,3.85,5.09,3.85c1.79,0,3.27-0.32,4.23-0.64V20.16z"/>
<path class="st0" d="M23.94,18.33c-1.97,2.01-5.25,2.37-8.49,2.37h-0.48l-6.79-0.08v10.66c0,0.35-0.27,0.59-0.67,0.59H3.13
	c-0.36,0-0.63-0.24-0.63-0.59V3.32c0-0.36,0.31-0.64,0.67-0.64h13.58c3.12,0,5.65,0.55,7.26,2.25c1.34,1.38,2.05,3.55,2.05,6.63
	C26.06,14.26,25.56,16.66,23.94,18.33 M19.08,7.86c-1.02-0.99-2.68-1.11-4.81-1.11H8.18v10.23l5.37-0.2
	c2.53-0.08,4.42-0.2,5.53-1.27c0.79-0.75,1.15-1.93,1.15-3.91C20.23,9.71,19.83,8.57,19.08,7.86"/>
</svg>
